<!-- Pirate ship icon by Madison Apple from the Noun Project (nounproject.com), recolored white for dark-theme use. -->
<svg xmlns="http://www.w3.org/2000/svg" viewBox="0 0 100 100" width="100" height="100"><title>pirate ship</title><path fill="#FFFFFF" d="M86.77,63.77c3.64-4.32,9.73-17,10.62-18.69a3.41,3.41,0,0,0,.08-1.44s-.46-.15-.57,0c-.81.82-5.41,6.51-10.78,12.37V45.44a.81.81,0,1,0-1.59,0V57.68a91.91,91.91,0,0,1-9.43,9c-.25.22-.78,0-1.18,0l0,0V63.74c0-.33,0-.65,0-1,0-1.59,0-3.18.08-4.77a2.17,2.17,0,0,0-.12-1v-2c.85-1.62,1.67-1.83,1.64-2.21,0-.53-1.11-.91-1.5-1-.05,0-.1-.06-.14-.16v-23a28.74,28.74,0,0,1,4.29-5c.23-.2.93-.94,0-.82a31.58,31.58,0,0,0-4.28,1.95V4.51c0-1.59-.36-2-.8-2a.88.88,0,0,0-.8.94v.12a6.07,6.07,0,0,1-2,.74c-1.81.13-2.59-1.2-4.43.38-2.73,2.34-3.42-.91-7,2.22-.4.35.83,1.84,1.09,3.5a20.74,20.74,0,0,1-.51,5.31c3.13-1.67,4.27.6,7.1-2.06,1.21-1.14,4.39.11,5.75.74V25.56a40.87,40.87,0,0,0-9,6.42c-6.2,5.71-13.22,14.29-14.57,15.22a4.49,4.49,0,0,1-2.1.54c-.1,0-.07-5.67-.23-7.09-.29-2.52.89-3.42,1.93-5,.2-.3.46-1.4.19-1.39-.73,0-1.54,1-2.17,0a4.87,4.87,0,0,1-.46-2.24c-.07-1.13,0-2.62,0-4.67,0-.54,2.45.09,3.11-.24.46-.23,0-.88-.17-.94-.43-.17-2,.1-2.44-.1-.58-.28-.42-.85-.5-1.31-.22-1.31.26-10,.21-10.32-.08-.51.11-.9-.33-1s-.39,2.29-.85,2.29C41.32,15.75,43,18,37,18.6c-.74.08.47.71.25,2.18-.16,1.11-.57,2.17.19,2.19,4.23.09,4.72-1.6,6.48-1.48.19,0,.45-.13.5,1,0,.66.19,3.3-.39,3.46-1.18.33-2.3-.14-3.43.4-.31.14-.05.89.26.86.54-.05,3.17-.13,3.26.19.27.89.61,7.76-.52,8.38-1.27,1.23-8.42,5.9-9,14.16-.5,7.65,3.92,11.34,3.89,11.9a17.84,17.84,0,0,0-3,4.74c-2.19,4.92-.27,10.71.05,10.75,1.5.21,3,.66,4.52.9,1.65.26,3.57,1.26,3.22,3.46,0,.25-1-.29-1.2-.15a30,30,0,0,0-2.81-1.42c-1-.21-17.15-.63-18.84-.9-.87-.14-1.1-.8-.63-1.65a2.72,2.72,0,0,0-.19-1.33,31.08,31.08,0,0,0-1.82-3.59,2.84,2.84,0,0,1-.59-1.6c0-.87.83-.35.89-.32.77.38,8.76,5,12.34,6.46.13.05.62-1.09.24-1.29A150.38,150.38,0,0,1,3.86,58a3.71,3.71,0,0,0-1.2-.36c0,.29-.22.74-.13.84,1.41,1.52,5.15,4.57,13.58,11a1.79,1.79,0,0,1,.3,2.72,2.12,2.12,0,0,0-.08,1.68,17.06,17.06,0,0,0,1.2,2.18c.89,1.54,2,2,1.55,2.52s-4.85-1-6-1.33-2-1.12-2.29.08a1.61,1.61,0,0,0,.67,1.39,24.78,24.78,0,0,1,12.21,13,20.93,20.93,0,0,0,4,5.54c.5.53,49.63,0,54.7,0a3,3,0,0,0,3-1.65c1.16-2.3,4.09-8.93,4.68-9.67.37-.47,1.24-.35,1.69-.78,3.16-3.16,5.08-15.33,5-16.13-.5.07-6.83,1.89-8.65,2.28-.83.17-2-.67-1.9-1.34.13-1.59.14-3.18.24-4.77A3.32,3.32,0,0,1,86.77,63.77Zm-15.65-55a9,9,0,0,1,1.16-4.41v9A13,13,0,0,1,71.12,8.72Zm-2.46,33a22.81,22.81,0,0,1,3.08-10.56c.07-.13.35.24.53.66V50.08c-.32.68-1,1.36-2.19,0C68.69,48.37,68.57,44,68.66,41.7ZM72,59.84l0,0Zm.19,20.31c-.12.68-.21,3.64-.68,3.94-1,.66-21.55.2-23.64.26-1.53.1-1.42-3.4-1.46-4.08,0-.42,2.11-.16,1.61-1a9,9,0,0,1-1.61-3.48A14.71,14.71,0,0,1,46,72.3a30.93,30.93,0,0,1,.85-5c.93-4.41,5.31-6.82,5.42-7.29,0-.21-.41-.28-.63-.27-.89,0-3.75,1-4.63.94-.7,0-.8-7.78-.32-9.67a8.71,8.71,0,0,1,2.13-3.31c2.1-2,10.63-11.4,11.32-12-1.82,3.12-4.08,7.56-4,10.19.17,8.47,6.29,8.83,4.52,11.19A46.8,46.8,0,0,0,56,67.33c-2.13,9.17.09,13.21,1.07,15s13.37-3.26,14.7-3.42C72,78.88,72.28,79.78,72.22,80.15ZM71.77,71c-.61.43-1.37-4.68-1.2-6,.5-3.63,1.12-4.77,1.36-5.09.12.09.24.17.35.27V70c0,.19,0,.32,0,.37A1.16,1.16,0,0,1,71.77,71ZM84.35,67.2a15,15,0,0,1-.61,3.72c-.16.46-2.09,1-2.69,1-1.27.1-1.93,1.17-2.28,2.61-.29,1.21-1.88,2.94-3,2.9a13.59,13.59,0,0,1-1.14-1.27,12.54,12.54,0,0,1-.8-1.39v-4c5.54-3.23,7.48-3.28,10.16-5A3.22,3.22,0,0,1,84.35,67.2ZM10.83,60.95c4.27-1.59,20.32-14,23.5-17.75.46-.54.76,0,.74,0-6.67,10.4-9.32,25.15-10.79,25.15-.12,0-6.49-4.73-13.37-6.91C10.83,61.4,10.75,61,10.83,60.95Z"/></svg>
